<svg xmlns="http://www.w3.org/2000/svg" viewBox="0 0 100 100">
  <defs>
    <linearGradient id="brainGradient" x1="0%" y1="0%" x2="100%" y2="100%">
      <stop offset="0%" style="stop-color:#ff6b35;stop-opacity:1" />
      <stop offset="100%" style="stop-color:#e55a2b;stop-opacity:1" />
    </linearGradient>
  </defs>
  
  <!-- Brain shape -->
  <path d="M50 15 C65 15, 75 25, 75 40 C80 45, 80 55, 75 60 C75 75, 65 85, 50 85 C35 85, 25 75, 25 60 C20 55, 20 45, 25 40 C25 25, 35 15, 50 15 Z" 
        fill="url(#brainGradient)" 
        stroke="none"/>
  
  <!-- Neural connections -->
  <circle cx="40" cy="35" r="2" fill="white" opacity="0.8"/>
  <circle cx="60" cy="35" r="2" fill="white" opacity="0.8"/>
  <circle cx="35" cy="50" r="2" fill="white" opacity="0.8"/>
  <circle cx="65" cy="50" r="2" fill="white" opacity="0.8"/>
  <circle cx="45" cy="65" r="2" fill="white" opacity="0.8"/>
  <circle cx="55" cy="65" r="2" fill="white" opacity="0.8"/>
  
  <!-- Connection lines -->
  <line x1="40" y1="35" x2="35" y2="50" stroke="white" stroke-width="1" opacity="0.6"/>
  <line x1="60" y1="35" x2="65" y2="50" stroke="white" stroke-width="1" opacity="0.6"/>
  <line x1="35" y1="50" x2="45" y2="65" stroke="white" stroke-width="1" opacity="0.6"/>
  <line x1="65" y1="50" x2="55" y2="65" stroke="white" stroke-width="1" opacity="0.6"/>
  <line x1="40" y1="35" x2="60" y2="35" stroke="white" stroke-width="1" opacity="0.6"/>
  <line x1="45" y1="65" x2="55" y2="65" stroke="white" stroke-width="1" opacity="0.6"/>
</svg>